<svg width="860" height="330" viewBox="0 0 860 330" fill="none" xmlns="http://www.w3.org/2000/svg">
  <defs>
    <linearGradient id="mcad-wave" x1="20" y1="115" x2="720" y2="115" gradientUnits="userSpaceOnUse">
      <stop stop-color="#66E6D6" stop-opacity="0"/>
      <stop offset="0.22" stop-color="#66E6D6"/>
      <stop offset="1" stop-color="#2DB6FF"/>
    </linearGradient>
    <radialGradient id="mcad-glow" cx="0" cy="0" r="1" gradientUnits="userSpaceOnUse" gradientTransform="translate(678 80) rotate(90) scale(40)">
      <stop stop-color="#66E6D6" stop-opacity="0.95"/>
      <stop offset="1" stop-color="#66E6D6" stop-opacity="0"/>
    </radialGradient>
    <filter id="mcad-soft-glow" x="600" y="8" width="156" height="156" filterUnits="userSpaceOnUse" color-interpolation-filters="sRGB">
      <feGaussianBlur stdDeviation="18"/>
    </filter>
  </defs>
  <path
    d="M20 94H210L255 18L300 172L345 94L388 166L472 18L528 94H612"
    stroke="url(#mcad-wave)"
    stroke-width="22"
    stroke-linecap="round"
    stroke-linejoin="round"
  />
  <g filter="url(#mcad-soft-glow)">
    <circle cx="678" cy="80" r="30" fill="url(#mcad-glow)"/>
  </g>
  <path
    d="M678 35C661.431 35 648 48.4315 648 65C648 86.6754 678 115 678 115C678 115 708 86.6754 708 65C708 48.4315 694.569 35 678 35ZM678 79C670.268 79 664 72.732 664 65C664 57.268 670.268 51 678 51C685.732 51 692 57.268 692 65C692 72.732 685.732 79 678 79Z"
    fill="url(#mcad-wave)"
  />
  <circle cx="678" cy="144" r="15" fill="url(#mcad-wave)"/>
  <text
    x="20"
    y="268"
    fill="#FFFFFF"
    font-family="Inter, Arial, Helvetica, sans-serif"
    font-size="156"
    font-weight="800"
    letter-spacing="6"
  >MCAD</text>
  <text
    x="20"
    y="320"
    fill="#66E6D6"
    font-family="Inter, Arial, Helvetica, sans-serif"
    font-size="54"
    font-weight="500"
  >Medical Computer Aided Dispatch</text>
</svg>
